<svg xmlns="http://www.w3.org/2000/svg" width="1100" height="560" viewBox="0 0 1100 560" role="img" aria-labelledby="title desc">
  <title id="title">NSW ED triage mix by quarter, 2010-2025</title>
  <desc id="desc">Percent-stacked bar chart showing triage category mix by quarter from 2010 to Jul-Sep 2025.</desc>
  <rect width="1100" height="560" fill="#ffffff"/>
  <text x="550" y="38" text-anchor="middle" font-family="Arial, sans-serif" font-size="24" font-weight="700" fill="#334155">NSW ED triage mix by quarter, 2010-2025</text>
  
    <line x1="62" y1="484.0" x2="896" y2="484.0" stroke="#e2e8f0" stroke-width="1"/>
    <text x="46" y="489.0" text-anchor="end" font-family="Arial, sans-serif" font-size="15" fill="#64748b">0%</text>
    <line x1="62" y1="380.0" x2="896" y2="380.0" stroke="#e2e8f0" stroke-width="1"/>
    <text x="46" y="385.0" text-anchor="end" font-family="Arial, sans-serif" font-size="15" fill="#64748b">25%</text>
    <line x1="62" y1="276.0" x2="896" y2="276.0" stroke="#e2e8f0" stroke-width="1"/>
    <text x="46" y="281.0" text-anchor="end" font-family="Arial, sans-serif" font-size="15" fill="#64748b">50%</text>
    <line x1="62" y1="172.0" x2="896" y2="172.0" stroke="#e2e8f0" stroke-width="1"/>
    <text x="46" y="177.0" text-anchor="end" font-family="Arial, sans-serif" font-size="15" fill="#64748b">75%</text>
    <line x1="62" y1="68.0" x2="896" y2="68.0" stroke="#e2e8f0" stroke-width="1"/>
    <text x="46" y="73.0" text-anchor="end" font-family="Arial, sans-serif" font-size="15" fill="#64748b">100%</text>
  <rect x="62.0" y="481.6" width="10.3" height="2.4" fill="#7030a0"/><rect x="62.0" y="446.6" width="10.3" height="35.0" fill="#ed7d31"/><rect x="62.0" y="324.1" width="10.3" height="122.6" fill="#a6a6a6"/><rect x="62.0" y="136.9" width="10.3" height="187.1" fill="#ffc000"/><rect x="62.0" y="68.0" width="10.3" height="68.9" fill="#4472c4"/><rect x="75.3" y="481.3" width="10.3" height="2.7" fill="#7030a0"/><rect x="75.3" y="444.4" width="10.3" height="37.0" fill="#ed7d31"/><rect x="75.3" y="316.8" width="10.3" height="127.6" fill="#a6a6a6"/><rect x="75.3" y="132.0" width="10.3" height="184.8" fill="#ffc000"/><rect x="75.3" y="68.0" width="10.3" height="64.0" fill="#4472c4"/><rect x="88.6" y="481.4" width="10.3" height="2.6" fill="#7030a0"/><rect x="88.6" y="445.2" width="10.3" height="36.2" fill="#ed7d31"/><rect x="88.6" y="314.9" width="10.3" height="130.3" fill="#a6a6a6"/><rect x="88.6" y="129.2" width="10.3" height="185.7" fill="#ffc000"/><rect x="88.6" y="68.0" width="10.3" height="61.2" fill="#4472c4"/><rect x="101.9" y="481.6" width="10.3" height="2.4" fill="#7030a0"/><rect x="101.9" y="446.4" width="10.3" height="35.2" fill="#ed7d31"/><rect x="101.9" y="320.4" width="10.3" height="126.0" fill="#a6a6a6"/><rect x="101.9" y="134.0" width="10.3" height="186.4" fill="#ffc000"/><rect x="101.9" y="68.0" width="10.3" height="66.0" fill="#4472c4"/><rect x="115.1" y="481.6" width="10.3" height="2.4" fill="#7030a0"/><rect x="115.1" y="447.0" width="10.3" height="34.6" fill="#ed7d31"/><rect x="115.1" y="323.7" width="10.3" height="123.3" fill="#a6a6a6"/><rect x="115.1" y="134.1" width="10.3" height="189.6" fill="#ffc000"/><rect x="115.1" y="68.0" width="10.3" height="66.1" fill="#4472c4"/><rect x="128.4" y="481.4" width="10.3" height="2.6" fill="#7030a0"/><rect x="128.4" y="444.6" width="10.3" height="36.7" fill="#ed7d31"/><rect x="128.4" y="315.3" width="10.3" height="129.3" fill="#a6a6a6"/><rect x="128.4" y="128.1" width="10.3" height="187.1" fill="#ffc000"/><rect x="128.4" y="68.0" width="10.3" height="60.1" fill="#4472c4"/><rect x="141.7" y="481.4" width="10.3" height="2.6" fill="#7030a0"/><rect x="141.7" y="443.7" width="10.3" height="37.7" fill="#ed7d31"/><rect x="141.7" y="309.8" width="10.3" height="133.9" fill="#a6a6a6"/><rect x="141.7" y="124.8" width="10.3" height="185.0" fill="#ffc000"/><rect x="141.7" y="68.0" width="10.3" height="56.8" fill="#4472c4"/><rect x="155.0" y="481.5" width="10.3" height="2.5" fill="#7030a0"/><rect x="155.0" y="441.9" width="10.3" height="39.6" fill="#ed7d31"/><rect x="155.0" y="310.4" width="10.3" height="131.5" fill="#a6a6a6"/><rect x="155.0" y="126.7" width="10.3" height="183.7" fill="#ffc000"/><rect x="155.0" y="68.0" width="10.3" height="58.7" fill="#4472c4"/><rect x="168.3" y="481.7" width="10.3" height="2.3" fill="#7030a0"/><rect x="168.3" y="442.4" width="10.3" height="39.3" fill="#ed7d31"/><rect x="168.3" y="311.9" width="10.3" height="130.5" fill="#a6a6a6"/><rect x="168.3" y="126.6" width="10.3" height="185.3" fill="#ffc000"/><rect x="168.3" y="68.0" width="10.3" height="58.6" fill="#4472c4"/><rect x="181.6" y="481.4" width="10.3" height="2.6" fill="#7030a0"/><rect x="181.6" y="438.5" width="10.3" height="42.9" fill="#ed7d31"/><rect x="181.6" y="303.2" width="10.3" height="135.2" fill="#a6a6a6"/><rect x="181.6" y="118.4" width="10.3" height="184.8" fill="#ffc000"/><rect x="181.6" y="68.0" width="10.3" height="50.4" fill="#4472c4"/><rect x="194.9" y="481.2" width="10.3" height="2.8" fill="#7030a0"/><rect x="194.9" y="437.9" width="10.3" height="43.3" fill="#ed7d31"/><rect x="194.9" y="300.4" width="10.3" height="137.5" fill="#a6a6a6"/><rect x="194.9" y="114.8" width="10.3" height="185.6" fill="#ffc000"/><rect x="194.9" y="68.0" width="10.3" height="46.8" fill="#4472c4"/><rect x="208.1" y="481.2" width="10.3" height="2.8" fill="#7030a0"/><rect x="208.1" y="436.7" width="10.3" height="44.5" fill="#ed7d31"/><rect x="208.1" y="302.5" width="10.3" height="134.2" fill="#a6a6a6"/><rect x="208.1" y="116.3" width="10.3" height="186.2" fill="#ffc000"/><rect x="208.1" y="68.0" width="10.3" height="48.3" fill="#4472c4"/><rect x="221.4" y="481.5" width="10.3" height="2.5" fill="#7030a0"/><rect x="221.4" y="437.6" width="10.3" height="43.8" fill="#ed7d31"/><rect x="221.4" y="305.2" width="10.3" height="132.4" fill="#a6a6a6"/><rect x="221.4" y="119.3" width="10.3" height="185.9" fill="#ffc000"/><rect x="221.4" y="68.0" width="10.3" height="51.3" fill="#4472c4"/><rect x="234.7" y="481.2" width="10.3" height="2.8" fill="#7030a0"/><rect x="234.7" y="433.9" width="10.3" height="47.2" fill="#ed7d31"/><rect x="234.7" y="295.7" width="10.3" height="138.2" fill="#a6a6a6"/><rect x="234.7" y="113.8" width="10.3" height="181.9" fill="#ffc000"/><rect x="234.7" y="68.0" width="10.3" height="45.8" fill="#4472c4"/><rect x="248.0" y="481.1" width="10.3" height="2.9" fill="#7030a0"/><rect x="248.0" y="433.9" width="10.3" height="47.2" fill="#ed7d31"/><rect x="248.0" y="294.3" width="10.3" height="139.6" fill="#a6a6a6"/><rect x="248.0" y="111.9" width="10.3" height="182.4" fill="#ffc000"/><rect x="248.0" y="68.0" width="10.3" height="43.9" fill="#4472c4"/><rect x="261.3" y="481.1" width="10.3" height="2.9" fill="#7030a0"/><rect x="261.3" y="434.8" width="10.3" height="46.3" fill="#ed7d31"/><rect x="261.3" y="300.1" width="10.3" height="134.7" fill="#a6a6a6"/><rect x="261.3" y="116.3" width="10.3" height="183.8" fill="#ffc000"/><rect x="261.3" y="68.0" width="10.3" height="48.3" fill="#4472c4"/><rect x="274.6" y="481.4" width="10.3" height="2.6" fill="#7030a0"/><rect x="274.6" y="435.1" width="10.3" height="46.3" fill="#ed7d31"/><rect x="274.6" y="302.6" width="10.3" height="132.6" fill="#a6a6a6"/><rect x="274.6" y="117.9" width="10.3" height="184.6" fill="#ffc000"/><rect x="274.6" y="68.0" width="10.3" height="49.9" fill="#4472c4"/><rect x="287.9" y="481.2" width="10.3" height="2.8" fill="#7030a0"/><rect x="287.9" y="432.2" width="10.3" height="49.0" fill="#ed7d31"/><rect x="287.9" y="294.7" width="10.3" height="137.5" fill="#a6a6a6"/><rect x="287.9" y="113.4" width="10.3" height="181.3" fill="#ffc000"/><rect x="287.9" y="68.0" width="10.3" height="45.4" fill="#4472c4"/><rect x="301.1" y="481.0" width="10.3" height="3.0" fill="#7030a0"/><rect x="301.1" y="431.4" width="10.3" height="49.5" fill="#ed7d31"/><rect x="301.1" y="291.4" width="10.3" height="140.0" fill="#a6a6a6"/><rect x="301.1" y="110.2" width="10.3" height="181.2" fill="#ffc000"/><rect x="301.1" y="68.0" width="10.3" height="42.2" fill="#4472c4"/><rect x="314.4" y="481.2" width="10.3" height="2.8" fill="#7030a0"/><rect x="314.4" y="433.0" width="10.3" height="48.2" fill="#ed7d31"/><rect x="314.4" y="297.9" width="10.3" height="135.1" fill="#a6a6a6"/><rect x="314.4" y="114.8" width="10.3" height="183.0" fill="#ffc000"/><rect x="314.4" y="68.0" width="10.3" height="46.8" fill="#4472c4"/><rect x="327.7" y="481.5" width="10.3" height="2.5" fill="#7030a0"/><rect x="327.7" y="432.8" width="10.3" height="48.6" fill="#ed7d31"/><rect x="327.7" y="297.5" width="10.3" height="135.4" fill="#a6a6a6"/><rect x="327.7" y="114.1" width="10.3" height="183.3" fill="#ffc000"/><rect x="327.7" y="68.0" width="10.3" height="46.1" fill="#4472c4"/><rect x="341.0" y="481.2" width="10.3" height="2.8" fill="#7030a0"/><rect x="341.0" y="430.0" width="10.3" height="51.2" fill="#ed7d31"/><rect x="341.0" y="287.8" width="10.3" height="142.1" fill="#a6a6a6"/><rect x="341.0" y="110.2" width="10.3" height="177.7" fill="#ffc000"/><rect x="341.0" y="68.0" width="10.3" height="42.2" fill="#4472c4"/><rect x="354.3" y="481.0" width="10.3" height="3.0" fill="#7030a0"/><rect x="354.3" y="429.7" width="10.3" height="51.3" fill="#ed7d31"/><rect x="354.3" y="285.9" width="10.3" height="143.7" fill="#a6a6a6"/><rect x="354.3" y="108.1" width="10.3" height="177.8" fill="#ffc000"/><rect x="354.3" y="68.0" width="10.3" height="40.1" fill="#4472c4"/><rect x="367.6" y="481.2" width="10.3" height="2.8" fill="#7030a0"/><rect x="367.6" y="431.2" width="10.3" height="50.0" fill="#ed7d31"/><rect x="367.6" y="292.2" width="10.3" height="139.0" fill="#a6a6a6"/><rect x="367.6" y="112.3" width="10.3" height="180.0" fill="#ffc000"/><rect x="367.6" y="68.0" width="10.3" height="44.3" fill="#4472c4"/><rect x="380.9" y="481.4" width="10.3" height="2.6" fill="#7030a0"/><rect x="380.9" y="431.9" width="10.3" height="49.5" fill="#ed7d31"/><rect x="380.9" y="292.3" width="10.3" height="139.5" fill="#a6a6a6"/><rect x="380.9" y="112.1" width="10.3" height="180.2" fill="#ffc000"/><rect x="380.9" y="68.0" width="10.3" height="44.1" fill="#4472c4"/><rect x="394.1" y="480.9" width="10.3" height="3.1" fill="#7030a0"/><rect x="394.1" y="428.4" width="10.3" height="52.6" fill="#ed7d31"/><rect x="394.1" y="283.0" width="10.3" height="145.3" fill="#a6a6a6"/><rect x="394.1" y="109.0" width="10.3" height="174.1" fill="#ffc000"/><rect x="394.1" y="68.0" width="10.3" height="41.0" fill="#4472c4"/><rect x="407.4" y="480.9" width="10.3" height="3.1" fill="#7030a0"/><rect x="407.4" y="427.5" width="10.3" height="53.4" fill="#ed7d31"/><rect x="407.4" y="279.2" width="10.3" height="148.4" fill="#a6a6a6"/><rect x="407.4" y="106.0" width="10.3" height="173.1" fill="#ffc000"/><rect x="407.4" y="68.0" width="10.3" height="38.0" fill="#4472c4"/><rect x="420.7" y="481.1" width="10.3" height="2.9" fill="#7030a0"/><rect x="420.7" y="430.7" width="10.3" height="50.4" fill="#ed7d31"/><rect x="420.7" y="288.0" width="10.3" height="142.8" fill="#a6a6a6"/><rect x="420.7" y="110.6" width="10.3" height="177.4" fill="#ffc000"/><rect x="420.7" y="68.0" width="10.3" height="42.6" fill="#4472c4"/><rect x="434.0" y="481.3" width="10.3" height="2.7" fill="#7030a0"/><rect x="434.0" y="430.2" width="10.3" height="51.1" fill="#ed7d31"/><rect x="434.0" y="288.8" width="10.3" height="141.4" fill="#a6a6a6"/><rect x="434.0" y="112.6" width="10.3" height="176.2" fill="#ffc000"/><rect x="434.0" y="68.0" width="10.3" height="44.6" fill="#4472c4"/><rect x="447.3" y="481.2" width="10.3" height="2.8" fill="#7030a0"/><rect x="447.3" y="427.5" width="10.3" height="53.6" fill="#ed7d31"/><rect x="447.3" y="282.2" width="10.3" height="145.4" fill="#a6a6a6"/><rect x="447.3" y="110.5" width="10.3" height="171.7" fill="#ffc000"/><rect x="447.3" y="68.0" width="10.3" height="42.5" fill="#4472c4"/><rect x="460.6" y="480.9" width="10.3" height="3.1" fill="#7030a0"/><rect x="460.6" y="427.5" width="10.3" height="53.4" fill="#ed7d31"/><rect x="460.6" y="281.1" width="10.3" height="146.4" fill="#a6a6a6"/><rect x="460.6" y="106.5" width="10.3" height="174.6" fill="#ffc000"/><rect x="460.6" y="68.0" width="10.3" height="38.5" fill="#4472c4"/><rect x="473.9" y="481.1" width="10.3" height="2.9" fill="#7030a0"/><rect x="473.9" y="428.4" width="10.3" height="52.6" fill="#ed7d31"/><rect x="473.9" y="286.2" width="10.3" height="142.2" fill="#a6a6a6"/><rect x="473.9" y="110.9" width="10.3" height="175.3" fill="#ffc000"/><rect x="473.9" y="68.0" width="10.3" height="42.9" fill="#4472c4"/><rect x="487.1" y="481.2" width="10.3" height="2.8" fill="#7030a0"/><rect x="487.1" y="427.5" width="10.3" height="53.6" fill="#ed7d31"/><rect x="487.1" y="284.1" width="10.3" height="143.4" fill="#a6a6a6"/><rect x="487.1" y="110.5" width="10.3" height="173.7" fill="#ffc000"/><rect x="487.1" y="68.0" width="10.3" height="42.5" fill="#4472c4"/><rect x="500.4" y="481.0" width="10.3" height="3.0" fill="#7030a0"/><rect x="500.4" y="425.3" width="10.3" height="55.6" fill="#ed7d31"/><rect x="500.4" y="277.8" width="10.3" height="147.5" fill="#a6a6a6"/><rect x="500.4" y="107.2" width="10.3" height="170.6" fill="#ffc000"/><rect x="500.4" y="68.0" width="10.3" height="39.2" fill="#4472c4"/><rect x="513.7" y="480.9" width="10.3" height="3.1" fill="#7030a0"/><rect x="513.7" y="423.9" width="10.3" height="56.9" fill="#ed7d31"/><rect x="513.7" y="272.6" width="10.3" height="151.3" fill="#a6a6a6"/><rect x="513.7" y="103.8" width="10.3" height="168.9" fill="#ffc000"/><rect x="513.7" y="68.0" width="10.3" height="35.8" fill="#4472c4"/><rect x="527.0" y="480.9" width="10.3" height="3.1" fill="#7030a0"/><rect x="527.0" y="425.4" width="10.3" height="55.5" fill="#ed7d31"/><rect x="527.0" y="278.4" width="10.3" height="147.0" fill="#a6a6a6"/><rect x="527.0" y="107.1" width="10.3" height="171.3" fill="#ffc000"/><rect x="527.0" y="68.0" width="10.3" height="39.1" fill="#4472c4"/><rect x="540.3" y="481.1" width="10.3" height="2.9" fill="#7030a0"/><rect x="540.3" y="426.7" width="10.3" height="54.4" fill="#ed7d31"/><rect x="540.3" y="279.4" width="10.3" height="147.3" fill="#a6a6a6"/><rect x="540.3" y="106.5" width="10.3" height="172.9" fill="#ffc000"/><rect x="540.3" y="68.0" width="10.3" height="38.5" fill="#4472c4"/><rect x="553.6" y="480.9" width="10.3" height="3.1" fill="#7030a0"/><rect x="553.6" y="425.2" width="10.3" height="55.7" fill="#ed7d31"/><rect x="553.6" y="274.9" width="10.3" height="150.3" fill="#a6a6a6"/><rect x="553.6" y="104.7" width="10.3" height="170.2" fill="#ffc000"/><rect x="553.6" y="68.0" width="10.3" height="36.7" fill="#4472c4"/><rect x="566.9" y="480.9" width="10.3" height="3.1" fill="#7030a0"/><rect x="566.9" y="424.2" width="10.3" height="56.7" fill="#ed7d31"/><rect x="566.9" y="271.4" width="10.3" height="152.8" fill="#a6a6a6"/><rect x="566.9" y="102.3" width="10.3" height="169.1" fill="#ffc000"/><rect x="566.9" y="68.0" width="10.3" height="34.3" fill="#4472c4"/><rect x="580.1" y="480.9" width="10.3" height="3.1" fill="#7030a0"/><rect x="580.1" y="425.4" width="10.3" height="55.5" fill="#ed7d31"/><rect x="580.1" y="274.9" width="10.3" height="150.6" fill="#a6a6a6"/><rect x="580.1" y="104.5" width="10.3" height="170.3" fill="#ffc000"/><rect x="580.1" y="68.0" width="10.3" height="36.5" fill="#4472c4"/><rect x="593.4" y="481.0" width="10.3" height="3.0" fill="#7030a0"/><rect x="593.4" y="427.5" width="10.3" height="53.5" fill="#ed7d31"/><rect x="593.4" y="284.3" width="10.3" height="143.2" fill="#a6a6a6"/><rect x="593.4" y="116.9" width="10.3" height="167.4" fill="#ffc000"/><rect x="593.4" y="68.0" width="10.3" height="48.9" fill="#4472c4"/><rect x="606.7" y="480.4" width="10.3" height="3.6" fill="#7030a0"/><rect x="606.7" y="419.9" width="10.3" height="60.5" fill="#ed7d31"/><rect x="606.7" y="276.1" width="10.3" height="143.8" fill="#a6a6a6"/><rect x="606.7" y="128.7" width="10.3" height="147.4" fill="#ffc000"/><rect x="606.7" y="68.0" width="10.3" height="60.7" fill="#4472c4"/><rect x="620.0" y="480.6" width="10.3" height="3.4" fill="#7030a0"/><rect x="620.0" y="420.9" width="10.3" height="59.7" fill="#ed7d31"/><rect x="620.0" y="275.4" width="10.3" height="145.5" fill="#a6a6a6"/><rect x="620.0" y="122.4" width="10.3" height="152.9" fill="#ffc000"/><rect x="620.0" y="68.0" width="10.3" height="54.4" fill="#4472c4"/><rect x="633.3" y="481.0" width="10.3" height="3.0" fill="#7030a0"/><rect x="633.3" y="425.0" width="10.3" height="56.0" fill="#ed7d31"/><rect x="633.3" y="279.3" width="10.3" height="145.6" fill="#a6a6a6"/><rect x="633.3" y="117.4" width="10.3" height="161.9" fill="#ffc000"/><rect x="633.3" y="68.0" width="10.3" height="49.4" fill="#4472c4"/><rect x="646.6" y="481.0" width="10.3" height="3.0" fill="#7030a0"/><rect x="646.6" y="423.7" width="10.3" height="57.2" fill="#ed7d31"/><rect x="646.6" y="276.8" width="10.3" height="146.9" fill="#a6a6a6"/><rect x="646.6" y="111.2" width="10.3" height="165.6" fill="#ffc000"/><rect x="646.6" y="68.0" width="10.3" height="43.2" fill="#4472c4"/><rect x="659.9" y="480.9" width="10.3" height="3.1" fill="#7030a0"/><rect x="659.9" y="423.5" width="10.3" height="57.5" fill="#ed7d31"/><rect x="659.9" y="273.7" width="10.3" height="149.8" fill="#a6a6a6"/><rect x="659.9" y="109.5" width="10.3" height="164.2" fill="#ffc000"/><rect x="659.9" y="68.0" width="10.3" height="41.5" fill="#4472c4"/><rect x="673.1" y="480.9" width="10.3" height="3.1" fill="#7030a0"/><rect x="673.1" y="418.9" width="10.3" height="62.0" fill="#ed7d31"/><rect x="673.1" y="271.0" width="10.3" height="147.9" fill="#a6a6a6"/><rect x="673.1" y="120.7" width="10.3" height="150.3" fill="#ffc000"/><rect x="673.1" y="68.0" width="10.3" height="52.7" fill="#4472c4"/><rect x="686.4" y="481.1" width="10.3" height="2.9" fill="#7030a0"/><rect x="686.4" y="422.7" width="10.3" height="58.4" fill="#ed7d31"/><rect x="686.4" y="278.3" width="10.3" height="144.4" fill="#a6a6a6"/><rect x="686.4" y="123.5" width="10.3" height="154.8" fill="#ffc000"/><rect x="686.4" y="68.0" width="10.3" height="55.5" fill="#4472c4"/><rect x="699.7" y="481.0" width="10.3" height="3.0" fill="#7030a0"/><rect x="699.7" y="421.1" width="10.3" height="59.9" fill="#ed7d31"/><rect x="699.7" y="273.6" width="10.3" height="147.4" fill="#a6a6a6"/><rect x="699.7" y="114.0" width="10.3" height="159.6" fill="#ffc000"/><rect x="699.7" y="68.0" width="10.3" height="46.0" fill="#4472c4"/><rect x="713.0" y="480.9" width="10.3" height="3.1" fill="#7030a0"/><rect x="713.0" y="420.6" width="10.3" height="60.2" fill="#ed7d31"/><rect x="713.0" y="266.5" width="10.3" height="154.1" fill="#a6a6a6"/><rect x="713.0" y="102.8" width="10.3" height="163.7" fill="#ffc000"/><rect x="713.0" y="68.0" width="10.3" height="34.8" fill="#4472c4"/><rect x="726.3" y="480.5" width="10.3" height="3.5" fill="#7030a0"/><rect x="726.3" y="416.4" width="10.3" height="64.1" fill="#ed7d31"/><rect x="726.3" y="260.7" width="10.3" height="155.7" fill="#a6a6a6"/><rect x="726.3" y="100.9" width="10.3" height="159.7" fill="#ffc000"/><rect x="726.3" y="68.0" width="10.3" height="32.9" fill="#4472c4"/><rect x="739.6" y="480.6" width="10.3" height="3.4" fill="#7030a0"/><rect x="739.6" y="418.7" width="10.3" height="61.9" fill="#ed7d31"/><rect x="739.6" y="265.2" width="10.3" height="153.5" fill="#a6a6a6"/><rect x="739.6" y="102.2" width="10.3" height="162.9" fill="#ffc000"/><rect x="739.6" y="68.0" width="10.3" height="34.2" fill="#4472c4"/><rect x="752.9" y="480.7" width="10.3" height="3.3" fill="#7030a0"/><rect x="752.9" y="417.0" width="10.3" height="63.7" fill="#ed7d31"/><rect x="752.9" y="261.4" width="10.3" height="155.6" fill="#a6a6a6"/><rect x="752.9" y="102.6" width="10.3" height="158.8" fill="#ffc000"/><rect x="752.9" y="68.0" width="10.3" height="34.6" fill="#4472c4"/><rect x="766.1" y="480.4" width="10.3" height="3.6" fill="#7030a0"/><rect x="766.1" y="414.4" width="10.3" height="66.0" fill="#ed7d31"/><rect x="766.1" y="256.6" width="10.3" height="157.8" fill="#a6a6a6"/><rect x="766.1" y="100.4" width="10.3" height="156.3" fill="#ffc000"/><rect x="766.1" y="68.0" width="10.3" height="32.4" fill="#4472c4"/><rect x="779.4" y="480.3" width="10.3" height="3.7" fill="#7030a0"/><rect x="779.4" y="413.9" width="10.3" height="66.4" fill="#ed7d31"/><rect x="779.4" y="253.9" width="10.3" height="159.9" fill="#a6a6a6"/><rect x="779.4" y="99.3" width="10.3" height="154.6" fill="#ffc000"/><rect x="779.4" y="68.0" width="10.3" height="31.3" fill="#4472c4"/><rect x="792.7" y="480.4" width="10.3" height="3.6" fill="#7030a0"/><rect x="792.7" y="415.8" width="10.3" height="64.6" fill="#ed7d31"/><rect x="792.7" y="257.5" width="10.3" height="158.3" fill="#a6a6a6"/><rect x="792.7" y="101.9" width="10.3" height="155.6" fill="#ffc000"/><rect x="792.7" y="68.0" width="10.3" height="33.9" fill="#4472c4"/><rect x="806.0" y="480.4" width="10.3" height="3.6" fill="#7030a0"/><rect x="806.0" y="414.4" width="10.3" height="66.0" fill="#ed7d31"/><rect x="806.0" y="256.7" width="10.3" height="157.7" fill="#a6a6a6"/><rect x="806.0" y="101.7" width="10.3" height="154.9" fill="#ffc000"/><rect x="806.0" y="68.0" width="10.3" height="33.7" fill="#4472c4"/><rect x="819.3" y="480.3" width="10.3" height="3.7" fill="#7030a0"/><rect x="819.3" y="412.1" width="10.3" height="68.2" fill="#ed7d31"/><rect x="819.3" y="250.6" width="10.3" height="161.5" fill="#a6a6a6"/><rect x="819.3" y="98.6" width="10.3" height="152.0" fill="#ffc000"/><rect x="819.3" y="68.0" width="10.3" height="30.6" fill="#4472c4"/><rect x="832.6" y="480.3" width="10.3" height="3.7" fill="#7030a0"/><rect x="832.6" y="411.4" width="10.3" height="68.9" fill="#ed7d31"/><rect x="832.6" y="248.1" width="10.3" height="163.2" fill="#a6a6a6"/><rect x="832.6" y="97.4" width="10.3" height="150.7" fill="#ffc000"/><rect x="832.6" y="68.0" width="10.3" height="29.4" fill="#4472c4"/><rect x="845.9" y="480.3" width="10.3" height="3.7" fill="#7030a0"/><rect x="845.9" y="413.4" width="10.3" height="66.9" fill="#ed7d31"/><rect x="845.9" y="252.8" width="10.3" height="160.7" fill="#a6a6a6"/><rect x="845.9" y="99.8" width="10.3" height="152.9" fill="#ffc000"/><rect x="845.9" y="68.0" width="10.3" height="31.8" fill="#4472c4"/><rect x="859.1" y="480.4" width="10.3" height="3.6" fill="#7030a0"/><rect x="859.1" y="411.3" width="10.3" height="69.1" fill="#ed7d31"/><rect x="859.1" y="248.0" width="10.3" height="163.3" fill="#a6a6a6"/><rect x="859.1" y="98.4" width="10.3" height="149.6" fill="#ffc000"/><rect x="859.1" y="68.0" width="10.3" height="30.4" fill="#4472c4"/><rect x="872.4" y="480.2" width="10.3" height="3.8" fill="#7030a0"/><rect x="872.4" y="408.7" width="10.3" height="71.5" fill="#ed7d31"/><rect x="872.4" y="242.1" width="10.3" height="166.6" fill="#a6a6a6"/><rect x="872.4" y="96.7" width="10.3" height="145.4" fill="#ffc000"/><rect x="872.4" y="68.0" width="10.3" height="28.7" fill="#4472c4"/><rect x="885.7" y="480.1" width="10.3" height="3.9" fill="#7030a0"/><rect x="885.7" y="407.3" width="10.3" height="72.8" fill="#ed7d31"/><rect x="885.7" y="236.6" width="10.3" height="170.7" fill="#a6a6a6"/><rect x="885.7" y="94.6" width="10.3" height="142.1" fill="#ffc000"/><rect x="885.7" y="68.0" width="10.3" height="26.6" fill="#4472c4"/>
  
    <line x1="67.1" y1="492" x2="67.1" y2="502" stroke="#cbd5e1"/>
    <text x="67.1" y="516" text-anchor="middle" font-family="Arial, sans-serif" font-size="14" fill="#64748b">2010</text>
    <line x1="120.3" y1="492" x2="120.3" y2="502" stroke="#cbd5e1"/>
    <text x="120.3" y="516" text-anchor="middle" font-family="Arial, sans-serif" font-size="14" fill="#64748b">2011</text>
    <line x1="173.4" y1="492" x2="173.4" y2="502" stroke="#cbd5e1"/>
    <text x="173.4" y="516" text-anchor="middle" font-family="Arial, sans-serif" font-size="14" fill="#64748b">2012</text>
    <line x1="226.6" y1="492" x2="226.6" y2="502" stroke="#cbd5e1"/>
    <text x="226.6" y="516" text-anchor="middle" font-family="Arial, sans-serif" font-size="14" fill="#64748b">2013</text>
    <line x1="279.7" y1="492" x2="279.7" y2="502" stroke="#cbd5e1"/>
    <text x="279.7" y="516" text-anchor="middle" font-family="Arial, sans-serif" font-size="14" fill="#64748b">2014</text>
    <line x1="332.9" y1="492" x2="332.9" y2="502" stroke="#cbd5e1"/>
    <text x="332.9" y="516" text-anchor="middle" font-family="Arial, sans-serif" font-size="14" fill="#64748b">2015</text>
    <line x1="386.0" y1="492" x2="386.0" y2="502" stroke="#cbd5e1"/>
    <text x="386.0" y="516" text-anchor="middle" font-family="Arial, sans-serif" font-size="14" fill="#64748b">2016</text>
    <line x1="439.1" y1="492" x2="439.1" y2="502" stroke="#cbd5e1"/>
    <text x="439.1" y="516" text-anchor="middle" font-family="Arial, sans-serif" font-size="14" fill="#64748b">2017</text>
    <line x1="492.3" y1="492" x2="492.3" y2="502" stroke="#cbd5e1"/>
    <text x="492.3" y="516" text-anchor="middle" font-family="Arial, sans-serif" font-size="14" fill="#64748b">2018</text>
    <line x1="545.4" y1="492" x2="545.4" y2="502" stroke="#cbd5e1"/>
    <text x="545.4" y="516" text-anchor="middle" font-family="Arial, sans-serif" font-size="14" fill="#64748b">2019</text>
    <line x1="598.6" y1="492" x2="598.6" y2="502" stroke="#cbd5e1"/>
    <text x="598.6" y="516" text-anchor="middle" font-family="Arial, sans-serif" font-size="14" fill="#64748b">2020</text>
    <line x1="651.7" y1="492" x2="651.7" y2="502" stroke="#cbd5e1"/>
    <text x="651.7" y="516" text-anchor="middle" font-family="Arial, sans-serif" font-size="14" fill="#64748b">2021</text>
    <line x1="704.9" y1="492" x2="704.9" y2="502" stroke="#cbd5e1"/>
    <text x="704.9" y="516" text-anchor="middle" font-family="Arial, sans-serif" font-size="14" fill="#64748b">2022</text>
    <line x1="758.0" y1="492" x2="758.0" y2="502" stroke="#cbd5e1"/>
    <text x="758.0" y="516" text-anchor="middle" font-family="Arial, sans-serif" font-size="14" fill="#64748b">2023</text>
    <line x1="811.1" y1="492" x2="811.1" y2="502" stroke="#cbd5e1"/>
    <text x="811.1" y="516" text-anchor="middle" font-family="Arial, sans-serif" font-size="14" fill="#64748b">2024</text>
    <line x1="864.3" y1="492" x2="864.3" y2="502" stroke="#cbd5e1"/>
    <text x="864.3" y="516" text-anchor="middle" font-family="Arial, sans-serif" font-size="14" fill="#64748b">2025</text>
  <g transform="translate(938 173)" font-family="Arial, sans-serif" font-size="16" fill="#475569">
    
      <rect x="0" y="0" width="18" height="18" fill="#7030a0"/>
      <text x="28" y="14">T1: Resuscitation</text>
      <rect x="0" y="34" width="18" height="18" fill="#ed7d31"/>
      <text x="28" y="48">T2: Emergency</text>
      <rect x="0" y="68" width="18" height="18" fill="#a6a6a6"/>
      <text x="28" y="82">T3: Urgent</text>
      <rect x="0" y="102" width="18" height="18" fill="#ffc000"/>
      <text x="28" y="116">T4: Semi-urgent</text>
      <rect x="0" y="136" width="18" height="18" fill="#4472c4"/>
      <text x="28" y="150">T5: Non-urgent</text>
  </g>
</svg>
